PathFileType	4	(X/Y/Z)	C:\Users\Basilio\Documents\Thesis Gigler\squatting_fais\c3dfiles\040\SLS_pre_front3\markers_experimental.trc
DataRate	CameraRate	NumFrames	NumMarkers	Units	OrigDataRate	OrigDataStartFrame	OrigNumFrames
200.000000	200.000000	4	62	mm	200.000000	139	1116
Frame#	Time	FHD			LBHD			RBHD			C7			T10			CLAV			LSHO			LUUPA			LMUPA			LDUPA			LLEP			LMEP			LRAD			LUL			LRFIN			RSHO			RUPA1			RMUPA			RDUPA			RLEP			RMEP			RRAD			RUL			RUFIN			LASI			RASI			USACR			LSACR			RSACR			LTHI1			LTHI2			LTHI3			LTHI4			LLFC			LMFC			LTIB1			LTIB2			LTIB3			LTIB4			LLMAL			LMMAL			LHEE			LMT1			LMT2			LMT5			RTHI			RTHI2			RTHI3			RTHI4			RLFC			RMFC			RTIB1			RTIB2			RTIB3			RTIB4			RLMAL			RMMAL			RHEE			RMT1			RMT2			RMT5			*61			
		X1	Y1	Z1	X2	Y2	Z2	X3	Y3	Z3	X4	Y4	Z4	X5	Y5	Z5	X6	Y6	Z6	X7	Y7	Z7	X8	Y8	Z8	X9	Y9	Z9	X10	Y10	Z10	X11	Y11	Z11	X12	Y12	Z12	X13	Y13	Z13	X14	Y14	Z14	X15	Y15	Z15	X16	Y16	Z16	X17	Y17	Z17	X18	Y18	Z18	X19	Y19	Z19	X20	Y20	Z20	X21	Y21	Z21	X22	Y22	Z22	X23	Y23	Z23	X24	Y24	Z24	X25	Y25	Z25	X26	Y26	Z26	X27	Y27	Z27	X28	Y28	Z28	X29	Y29	Z29	X30	Y30	Z30	X31	Y31	Z31	X32	Y32	Z32	X33	Y33	Z33	X34	Y34	Z34	X35	Y35	Z35	X36	Y36	Z36	X37	Y37	Z37	X38	Y38	Z38	X39	Y39	Z39	X40	Y40	Z40	X41	Y41	Z41	X42	Y42	Z42	X43	Y43	Z43	X44	Y44	Z44	X45	Y45	Z45	X46	Y46	Z46	X47	Y47	Z47	X48	Y48	Z48	X49	Y49	Z49	X50	Y50	Z50	X51	Y51	Z51	X52	Y52	Z52	X53	Y53	Z53	X54	Y54	Z54	X55	Y55	Z55	X56	Y56	Z56	X57	Y57	Z57	X58	Y58	Z58	X59	Y59	Z59	X60	Y60	Z60	X61	Y61	Z61	X62	Y62	Z62	

140	0.6950000000000001	-160.0384826660157	1763.925537109375	-1123.7490234375	-288.2162475585938	1725.025634765625	-1166.976440429688	-346.5160827636719	1693.904418945313	-1035.829467773438	-367.4965515136719	1566.144897460938	-1085.280151367188	-408.7810668945314	1248.968139648438	-1073.559204101563	-244.0305786132813	1487.93408203125	-1084.272094726563	-300.9588623046876	1527.792236328125	-1255.312133789063	-285.9435729980469	1325.8427734375	-1350.78857421875	-242.7082061767579	1308.509521484375	-1333.14990234375	-269.1985473632813	1260.168701171875	-1360.787841796875	-264.2440490722657	1196.362915039063	-1366.066772460938	-301.1302185058594	1177.422485351563	-1311.1865234375	-56.32592773437501	1020.168090820313	-1261.3037109375	-74.86096191406251	994.6307373046877	-1330.313110351563	16.20632934570313	966.0764770507815	-1266.46337890625	-287.6002197265626	1509.360107421875	-920.9094238281252	-271.7912902832032	1304.8251953125	-840.2860107421877	-229.014389038086	1291.927856445313	-859.4544067382815	-248.4759368896485	1239.150268554688	-837.0889892578127	-223.0933990478516	1180.419555664063	-840.709655761719	-264.1319274902344	1159.206420898438	-903.0825195312502	-8.381710052490236	1011.790649414063	-946.789245605469	-42.37294387817384	974.455505371094	-888.089538574219	56.55473709106447	943.4282836914065	-935.4084472656252	-225.2928009033204	1074.896362304688	-1176.299926757813	-221.9237060546876	1086.200927734375	-945.6304321289065	-410.9496154785157	1105.792602539063	-1054.365966796875	-414.8868408203126	1075.026611328125	-1080.01953125	-414.8891906738282	1076.220458984375	-1024.121704101563	-325.0473327636719	808.592712402344	-1214.261108398438	-279.9919433593751	736.4683227539064	-1216.0712890625	-234.9256744384766	744.6687011718751	-1222.030151367188	-297.0098876953126	682.2197265625001	-1199.681396484375	-267.8295593261719	550.7841796875001	-1183.383666992188	-263.5813293457032	540.9609985351564	-1051.535034179688	-247.5911102294922	327.0539245605469	-1125.01904296875	-322.9003906250001	293.6069641113282	-1157.658447265625	-280.5733032226563	282.1631774902344	-1146.881469726563	-279.3656616210938	204.8645477294922	-1103.124389648438	-356.8446655273438	126.6266784667969	-1105.720581054688	-317.5696716308594	141.0712585449219	-1027.590942382813	-413.9004821777345	96.86220550537112	-1049.454833984375	-200.7153472900391	56.46924972534181	-1049.63427734375	-205.0710601806641	51.35699844360353	-1096.7978515625	-261.3960571289063	36.67447662353516	-1138.25146484375	-220.7247467041016	814.8467407226565	-872.211608886719	-176.970687866211	765.1531372070314	-880.872985839844	-146.8849487304688	772.622253417969	-893.1567993164065	-193.8676147460938	684.1195678710939	-894.4172363281252	-162.4557037353516	553.6040649414064	-909.7849121093752	-172.5590972900391	548.5446166992189	-1043.05224609375	-79.4840545654297	380.9071044921876	-943.4844360351565	-133.1145172119141	290.9823913574219	-914.8001098632815	-90.10656738281251	295.2271728515626	-929.8371582031252	-66.25901794433595	254.2707824707032	-965.0794067382815	-92.41887664794923	130.61962890625	-943.0103759765627	-83.64736175537111	151.4606628417969	-1029.929809570313	-146.1645202636719	72.10444641113283	-995.0650024414065	69.29534149169923	120.415153503418	-1021.085327148438	66.77413177490236	121.4246902465821	-980.5001220703127	38.57527160644532	84.78464508056642	-927.6082153320315	nan	nan	nan	
141	0.7000000000000001	-160.569320678711	1763.889526367188	-1123.9755859375	-288.7389831542969	1724.894897460938	-1167.173706054688	-346.8790893554688	1693.798706054688	-1036.05615234375	-367.8977355957032	1565.969116210938	-1085.520141601563	-409.2584838867189	1248.857666015625	-1073.715209960938	-244.5181121826172	1487.618408203125	-1084.390258789063	-301.2913513183594	1527.935424804688	-1255.272216796875	-284.9447631835938	1326.780639648438	-1351.023193359375	-241.4998016357422	1309.826171875	-1333.572875976563	-266.5976562500001	1261.213012695313	-1361.794921875	-261.5807495117188	1197.427001953125	-1367.1396484375	-298.4053955078126	1177.863403320313	-1312.264770507813	-51.90155410766603	1023.402465820313	-1261.264404296875	-69.73978424072267	997.9438476562502	-1330.406860351563	21.24322319030762	970.7344970703127	-1266.19384765625	-287.9640197753907	1509.326416015625	-921.2998657226565	-271.1359863281251	1305.080688476563	-839.9876708984377	-228.2365112304688	1292.862670898438	-859.736511230469	-246.5838470458985	1239.892944335938	-837.3494873046877	-220.8961791992188	1180.940307617188	-840.9226074218752	-262.1194152832032	1159.53759765625	-903.0421142578127	-4.262118339538575	1015.924560546875	-948.1873168945315	-37.44703674316407	977.7474365234377	-889.9154052734377	61.69582366943361	947.994323730469	-937.4295654296877	-226.8480072021485	1074.889526367188	-1177.018920898438	-221.8593292236329	1086.177612304688	-946.082214355469	-411.3419494628907	1105.580810546875	-1054.375	-416.5766601562501	1075.069091796875	-1080.417602539063	-415.4413146972657	1076.064086914063	-1024.251586914063	-325.3040466308594	808.4941406250002	-1214.1396484375	-280.3770141601563	736.5183715820314	-1216.048706054688	-235.2493438720704	744.5612182617189	-1222.237915039063	-297.2515869140626	682.1533203125001	-1199.77490234375	-267.7954711914063	550.7535400390626	-1183.564331054688	-263.4011230468751	540.9224853515626	-1051.569458007813	-247.5615692138672	326.9957885742188	-1125.020874023438	-322.8775329589844	293.5762939453126	-1157.66015625	-280.5290527343751	282.4714050292969	-1146.7763671875	-279.2867431640626	204.8224334716797	-1103.066528320313	-356.0732727050782	126.4049301147461	-1105.2734375	-317.5986022949219	141.0186920166016	-1027.61474609375	-413.9078369140626	96.9457702636719	-1049.343505859375	-200.7375030517579	56.36134719848634	-1049.581176757813	-205.0374755859376	51.29022598266603	-1096.763793945313	-261.4257202148438	36.69288635253907	-1138.256225585938	-220.9280853271485	814.812683105469	-872.096618652344	-176.8943634033203	765.2243041992189	-880.7215576171877	-146.8729400634766	772.762878417969	-892.8148193359377	-193.6688079833985	684.0978393554689	-894.4690551757815	-160.9433135986328	553.8804321289064	-909.8594970703127	-171.3486938476563	548.7742919921876	-1043.131958007813	-76.86006164550783	381.9745788574219	-943.4852294921877	-129.8809204101563	291.1988525390626	-915.3445434570315	-86.00120544433595	296.7294311523438	-929.5540771484377	-62.75349426269533	255.5768585205079	-965.3880615234377	-87.46556854248048	131.9214782714844	-943.6667480468752	-78.79803466796876	152.6297302246094	-1030.456298828125	-140.4546203613282	72.60365295410158	-995.4909667968752	74.46998596191408	122.502555847168	-1021.812927246094	71.42990112304689	123.220817565918	-982.4429931640627	44.10616683959962	86.52506256103517	-928.5185546875002	nan	nan	nan	
142	0.705	-161.2171478271485	1763.856079101563	-1124.2919921875	-289.2173767089844	1724.740112304688	-1167.334594726563	-347.5867919921876	1693.617797851563	-1036.20458984375	-368.2350158691407	1565.710571289063	-1085.773315429688	-409.7848510742189	1248.819213867188	-1073.843994140625	-244.9677734375001	1487.516845703125	-1084.52734375	-301.6878662109376	1528.052978515625	-1255.115234375	-283.6935119628907	1327.785888671875	-1351.494140625	-239.7836914062501	1310.716918945313	-1333.71875	-265.0649719238282	1262.19970703125	-1362.040161132813	-258.9181823730469	1198.568603515625	-1367.990478515625	-295.6358337402344	1178.419067382813	-1313.370849609375	-47.66372680664063	1027.188354492188	-1261.276611328125	-64.54788208007814	1001.261535644531	-1330.493286132813	26.291410446167	975.076354980469	-1265.971557617188	-288.4379577636719	1509.27001953125	-921.7028808593752	-269.6879577636719	1305.622192382813	-840.5469970703127	-227.1247558593751	1293.555297851563	-859.824645996094	-245.1493377685547	1240.554321289063	-837.466735839844	-218.6813201904297	1181.978515625	-840.9483642578127	-259.8921508789063	1160.08154296875	-902.9370117187502	0.1989554017782212	1019.922729492188	-949.6679687500002	-33.44389724731446	980.7099609375002	-891.7729492187502	66.48802185058595	952.649597167969	-939.4678955078127	-227.3896789550782	1074.821655273438	-1177.136352539063	-222.1542053222657	1086.045654296875	-946.1933593750002	-411.6237182617189	1105.666870117188	-1054.315795898438	-417.0736083984376	1074.885009765625	-1080.439697265625	-415.7635498046876	1075.862426757813	-1024.3154296875	-325.5939331054688	808.3322753906252	-1214.152709960938	-280.6321716308594	736.3861694335939	-1216.106201171875	-235.5855865478516	744.5321044921876	-1222.443603515625	-297.3649902343751	681.9943237304689	-1199.810546875	-267.8608398437501	550.7081298828126	-1183.668212890625	-263.1498718261719	540.8203735351564	-1051.707397460938	-247.4928436279297	326.9060363769532	-1125.062622070313	-322.7599487304688	293.5111694335938	-1157.591796875	-281.2817077636719	282.2446594238282	-1146.178100585938	-279.2729187011719	204.7515563964844	-1103.036376953125	-355.9880676269532	126.3926391601563	-1105.234741210938	-317.5941467285157	141.0326538085938	-1027.60986328125	-413.9506835937501	96.87956237792972	-1049.352783203125	-200.7525024414063	56.29187393188478	-1049.566772460938	-205.0565032958985	51.31372833251955	-1096.777709960938	-261.3273620605469	36.66581726074219	-1138.230834960938	-221.559066772461	814.7651977539065	-871.9522705078127	-176.8804016113282	765.3035888671876	-880.6798095703127	-146.8340911865235	772.9016113281252	-892.6174926757815	-193.3151550292969	684.1701049804689	-894.5854492187502	-159.8848876953125	554.1495361328126	-909.7523193359377	-169.2764282226563	548.8936767578126	-1043.22705078125	-74.25579833984376	383.4013061523438	-943.7471313476565	-126.2103118896485	292.1557006835938	-915.224060058594	-82.35813140869142	297.6894226074219	-929.964050292969	-58.72276687622072	257.0286254882813	-965.7537231445315	-81.99391937255861	132.5048522949219	-943.8859863281252	-74.07994842529298	153.8248443603516	-1030.500366210938	-135.2661590576172	73.4654998779297	-995.5400390625002	79.47930908203126	124.4442443847657	-1022.714172363281	77.58374786376955	125.963134765625	-981.8627929687502	49.76856231689455	88.41760253906251	-929.2835693359377	nan	nan	nan	
143	0.71	-161.6979217529297	1763.779296875	-1124.554809570313	-289.7078552246094	1724.6337890625	-1167.533325195313	-347.8833618164063	1693.375244140625	-1036.321655273438	-368.5137023925782	1565.492797851563	-1086.01025390625	-410.245819091797	1248.70068359375	-1073.857299804688	-245.2374420166016	1487.401123046875	-1084.825439453125	-301.9508972167969	1528.194091796875	-1255.043823242188	-282.0076599121094	1328.495483398438	-1352.101806640625	-238.4069824218751	1311.922729492188	-1334.1689453125	-262.6598205566407	1263.423583984375	-1363.14111328125	-256.0110778808594	1199.737670898438	-1368.834716796875	-292.9994812011719	1178.9677734375	-1314.584594726563	-43.21057891845704	1030.78271484375	-1261.155639648438	-59.43670654296876	1004.783935546875	-1330.632568359375	31.53491210937501	979.2058715820315	-1265.42138671875	-288.9812316894532	1509.242065429688	-922.0816040039065	-269.0119628906251	1306.06201171875	-840.6881103515627	-225.9143981933594	1294.38916015625	-859.854187011719	-243.5666198730469	1241.103637695313	-837.445251464844	-216.5157623291016	1183.366088867188	-841.0585937500002	-257.7617187500001	1160.466918945313	-902.9669189453127	4.698285579681397	1024.214721679688	-950.9378051757815	-27.9194622039795	984.754577636719	-893.2296142578127	71.4813919067383	957.6199951171877	-941.345397949219	-227.9547424316407	1074.678466796875	-1177.262084960938	-222.7703704833985	1085.862060546875	-946.1228637695315	-412.1023559570314	1105.395141601563	-1054.390380859375	-417.5109252929689	1074.71240234375	-1080.392944335938	-416.2075195312501	1075.678344726563	-1024.257446289063	-326.0409545898438	808.188659667969	-1214.166748046875	-281.0213623046876	736.2730712890626	-1216.18310546875	-235.9001464843751	744.5145874023439	-1222.732666015625	-297.5548400878907	681.8625488281251	-1199.83154296875	-267.7968750000001	550.6134643554689	-1183.745239257813	-262.7290344238282	540.6917114257814	-1051.879760742188	-247.3126220703126	326.8885192871094	-1125.166137695313	-322.7541198730469	293.4902648925782	-1157.57861328125	-281.2078247070313	282.1628112792969	-1146.230712890625	-279.2332153320313	204.6482849121094	-1103.036987304688	-355.9627990722657	126.3220901489258	-1105.267700195313	-317.5834045410157	141.0504455566407	-1027.583618164063	-413.9581298828126	96.92981719970706	-1049.282348632813	-200.0391387939454	55.68000411987306	-1049.808837890625	-205.090560913086	51.2432098388672	-1096.742919921875	-261.2532043457032	36.6423568725586	-1138.19091796875	-221.6106872558594	814.735290527344	-871.9918212890627	-176.8150024414063	765.3861083984376	-880.5464477539065	-146.8485717773438	773.3143310546877	-892.3001098632815	-193.1679382324219	684.1655883789064	-894.7747802734377	-159.1137084960938	554.3500976562501	-909.6832275390627	-168.5076599121094	549.5605468750001	-1043.378540039063	-71.37416076660158	384.3356933593751	-943.8325805664065	-122.7501907348633	292.4390869140626	-915.6461181640627	-78.77046966552736	298.2630004882813	-930.1782226562502	-54.81386566162111	258.3270263671876	-965.939636230469	-76.96237182617189	133.82177734375	-944.380554199219	-69.12544250488283	155.0271148681641	-1031.068969726563	-129.458969116211	73.89727020263673	-996.1326904296877	84.58035278320314	126.5744705200196	-1023.389526367188	81.92626953125001	127.8332214355469	-983.3255615234377	55.19608688354494	90.21083068847658	-929.970642089844	nan	nan	nan	
